<?xml version="1.0" encoding="UTF-8" standalone="no"?><!-- Generator: Gravit.io --><svg xmlns="http://www.w3.org/2000/svg" xmlns:xlink="http://www.w3.org/1999/xlink" style="isolation:isolate" viewBox="635.6 418.6 685.061 111.1" width="685.061pt" height="111.1pt"><defs><clipPath id="_clipPath_zt1wKtX0V2PIyNYRSMgoCH4jLMKvPaOf"><rect x="635.6" y="418.6" width="685.061" height="111.1"/></clipPath></defs><g clip-path="url(#_clipPath_zt1wKtX0V2PIyNYRSMgoCH4jLMKvPaOf)"><g><path d=" M 1320.661 435.6 L 1211.67 505.95 L 1205.453 484.371 L 1320.661 435.6 Z " fill-rule="evenodd" fill="rgb(195,207,217)"/><path d=" M 1320.661 435.6 L 1205.453 484.371 L 1186.8 468.644 L 1320.661 435.6 Z " fill-rule="evenodd" fill="rgb(230,233,236)"/><path d=" M 1320.661 435.6 L 1211.67 505.95 L 1211.67 490.955 L 1320.661 435.6 Z " fill-rule="evenodd" fill="rgb(122,130,138)"/><path d=" M 1320.661 435.6 L 1240.198 515.459 L 1211.67 490.955 L 1320.661 435.6 Z " fill-rule="evenodd" fill="rgb(230,233,236)"/></g><linearGradient id="_lgradient_3" x1="0" y1="0.5" x2="1" y2="0.5" gradientTransform="matrix(513,0,0,94.1,635.6,435.6)" gradientUnits="userSpaceOnUse"><stop offset="0%" stop-opacity="0.55" style="stop-color:rgb(12,63,232)"/><stop offset="98.69565217391305%" stop-opacity="1" style="stop-color:rgb(110,206,124)"/></linearGradient><path d=" M 681.8 435.6 L 688.9 435.6 L 688.9 509.8 L 682.1 509.8 L 682.1 499.4 L 682.1 499.4 Q 678.9 504.7 673.65 507.5 L 673.65 507.5 L 673.65 507.5 Q 668.4 510.3 661.8 510.3 L 661.8 510.3 L 661.8 510.3 Q 654.4 510.3 648.4 506.9 L 648.4 506.9 L 648.4 506.9 Q 642.4 503.5 639 497.4 L 639 497.4 L 639 497.4 Q 635.6 491.3 635.6 483.5 L 635.6 483.5 L 635.6 483.5 Q 635.6 475.7 639 469.6 L 639 469.6 L 639 469.6 Q 642.4 463.5 648.4 460.15 L 648.4 460.15 L 648.4 460.15 Q 654.4 456.8 661.8 456.8 L 661.8 456.8 L 661.8 456.8 Q 668.2 456.8 673.35 459.45 L 673.35 459.45 L 673.35 459.45 Q 678.5 462.1 681.8 467.2 L 681.8 467.2 L 681.8 435.6 Z  M 662.4 504 L 662.4 504 Q 667.9 504 672.35 501.45 L 672.35 501.45 L 672.35 501.45 Q 676.8 498.9 679.35 494.2 L 679.35 494.2 L 679.35 494.2 Q 681.9 489.5 681.9 483.5 L 681.9 483.5 L 681.9 483.5 Q 681.9 477.5 679.35 472.8 L 679.35 472.8 L 679.35 472.8 Q 676.8 468.1 672.35 465.55 L 672.35 465.55 L 672.35 465.55 Q 667.9 463 662.4 463 L 662.4 463 L 662.4 463 Q 656.8 463 652.35 465.55 L 652.35 465.55 L 652.35 465.55 Q 647.9 468.1 645.35 472.8 L 645.35 472.8 L 645.35 472.8 Q 642.8 477.5 642.8 483.5 L 642.8 483.5 L 642.8 483.5 Q 642.8 489.5 645.35 494.2 L 645.35 494.2 L 645.35 494.2 Q 647.9 498.9 652.35 501.45 L 652.35 501.45 L 652.35 501.45 Q 656.8 504 662.4 504 L 662.4 504 Z  M 708.7 509.8 L 708.7 457.2 L 715.8 457.2 L 715.8 509.8 L 708.7 509.8 Z  M 712.3 445.7 L 712.3 445.7 Q 710.1 445.7 708.6 444.2 L 708.6 444.2 L 708.6 444.2 Q 707.1 442.7 707.1 440.6 L 707.1 440.6 L 707.1 440.6 Q 707.1 438.6 708.6 437.1 L 708.6 437.1 L 708.6 437.1 Q 710.1 435.6 712.3 435.6 L 712.3 435.6 L 712.3 435.6 Q 714.5 435.6 716 437.05 L 716 437.05 L 716 437.05 Q 717.5 438.5 717.5 440.5 L 717.5 440.5 L 717.5 440.5 Q 717.5 442.7 716 444.2 L 716 444.2 L 716 444.2 Q 714.5 445.7 712.3 445.7 L 712.3 445.7 Z  M 749.7 510.3 L 749.7 510.3 Q 743.3 510.3 737.45 508.45 L 737.45 508.45 L 737.45 508.45 Q 731.6 506.6 728.3 503.8 L 728.3 503.8 L 731.5 498.2 L 731.5 498.2 Q 734.8 500.8 739.8 502.45 L 739.8 502.45 L 739.8 502.45 Q 744.8 504.1 750.2 504.1 L 750.2 504.1 L 750.2 504.1 Q 757.4 504.1 760.85 501.85 L 760.85 501.85 L 760.85 501.85 Q 764.3 499.6 764.3 495.5 L 764.3 495.5 L 764.3 495.5 Q 764.3 492.6 762.4 490.95 L 762.4 490.95 L 762.4 490.95 Q 760.5 489.3 757.6 488.45 L 757.6 488.45 L 757.6 488.45 Q 754.7 487.6 749.9 486.8 L 749.9 486.8 L 749.9 486.8 Q 743.5 485.6 739.6 484.35 L 739.6 484.35 L 739.6 484.35 Q 735.7 483.1 732.95 480.1 L 732.95 480.1 L 732.95 480.1 Q 730.2 477.1 730.2 471.8 L 730.2 471.8 L 730.2 471.8 Q 730.2 465.2 735.7 461 L 735.7 461 L 735.7 461 Q 741.2 456.8 751 456.8 L 751 456.8 L 751 456.8 Q 756.1 456.8 761.2 458.15 L 761.2 458.15 L 761.2 458.15 Q 766.3 459.5 769.6 461.7 L 769.6 461.7 L 766.5 467.4 L 766.5 467.4 Q 760 462.9 751 462.9 L 751 462.9 L 751 462.9 Q 744.2 462.9 740.75 465.3 L 740.75 465.3 L 740.75 465.3 Q 737.3 467.7 737.3 471.6 L 737.3 471.6 L 737.3 471.6 Q 737.3 474.6 739.25 476.4 L 739.25 476.4 L 739.25 476.4 Q 741.2 478.2 744.1 479.05 L 744.1 479.05 L 744.1 479.05 Q 747 479.9 752.1 480.8 L 752.1 480.8 L 752.1 480.8 Q 758.4 482 762.2 483.2 L 762.2 483.2 L 762.2 483.2 Q 766 484.4 768.7 487.3 L 768.7 487.3 L 768.7 487.3 Q 771.4 490.2 771.4 495.3 L 771.4 495.3 L 771.4 495.3 Q 771.4 502.2 765.65 506.25 L 765.65 506.25 L 765.65 506.25 Q 759.9 510.3 749.7 510.3 L 749.7 510.3 Z  M 807.9 501.5 L 810.4 506.6 L 810.4 506.6 Q 808.4 508.4 805.5 509.35 L 805.5 509.35 L 805.5 509.35 Q 802.6 510.3 799.4 510.3 L 799.4 510.3 L 799.4 510.3 Q 792 510.3 788 506.3 L 788 506.3 L 788 506.3 Q 784 502.3 784 495 L 784 495 L 784 445.7 L 791.1 445.7 L 791.1 457.2 L 807 457.2 L 807 463.2 L 791.1 463.2 L 791.1 494.6 L 791.1 494.6 Q 791.1 499.3 793.4 501.75 L 793.4 501.75 L 793.4 501.75 Q 795.7 504.2 800.1 504.2 L 800.1 504.2 L 800.1 504.2 Q 804.9 504.2 807.9 501.5 L 807.9 501.5 Z  M 830.1 467.5 L 830.1 467.5 Q 832.6 462.2 837.55 459.5 L 837.55 459.5 L 837.55 459.5 Q 842.5 456.8 849.8 456.8 L 849.8 456.8 L 849.8 463.7 L 848.1 463.6 L 848.1 463.6 Q 839.8 463.6 835.1 468.7 L 835.1 468.7 L 835.1 468.7 Q 830.4 473.8 830.4 483 L 830.4 483 L 830.4 509.8 L 823.3 509.8 L 823.3 457.2 L 830.1 457.2 L 830.1 467.5 Z  M 903.7 457.2 L 910.8 457.2 L 910.8 503.4 L 910.8 503.4 Q 910.8 516.8 904.7 523.25 L 904.7 523.25 L 904.7 523.25 Q 898.6 529.7 886.3 529.7 L 886.3 529.7 L 886.3 529.7 Q 879.4 529.7 873.25 527.55 L 873.25 527.55 L 873.25 527.55 Q 867.1 525.4 863.3 521.6 L 863.3 521.6 L 866.9 516.2 L 866.9 516.2 Q 870.3 519.6 875.3 521.5 L 875.3 521.5 L 875.3 521.5 Q 880.3 523.4 886 523.4 L 886 523.4 L 886 523.4 Q 895.1 523.4 899.4 518.75 L 899.4 518.75 L 899.4 518.75 Q 903.7 514.1 903.7 504.3 L 903.7 504.3 L 903.7 498.2 L 903.7 498.2 Q 900.9 502.8 896.05 505.3 L 896.05 505.3 L 896.05 505.3 Q 891.2 507.8 885.1 507.8 L 885.1 507.8 L 885.1 507.8 Q 874.8 507.8 868.85 502.05 L 868.85 502.05 L 868.85 502.05 Q 862.9 496.3 862.9 485.2 L 862.9 485.2 L 862.9 457.2 L 870 457.2 L 870 484.5 L 870 484.5 Q 870 492.8 874.1 497.1 L 874.1 497.1 L 874.1 497.1 Q 878.2 501.4 885.8 501.4 L 885.8 501.4 L 885.8 501.4 Q 894.1 501.4 898.9 496.35 L 898.9 496.35 L 898.9 496.35 Q 903.7 491.3 903.7 482.3 L 903.7 482.3 L 903.7 457.2 Z  M 957.8 456.8 L 957.8 456.8 Q 965.2 456.8 971.2 460.15 L 971.2 460.15 L 971.2 460.15 Q 977.2 463.5 980.6 469.6 L 980.6 469.6 L 980.6 469.6 Q 984 475.7 984 483.5 L 984 483.5 L 984 483.5 Q 984 491.3 980.6 497.4 L 980.6 497.4 L 980.6 497.4 Q 977.2 503.5 971.2 506.9 L 971.2 506.9 L 971.2 506.9 Q 965.2 510.3 957.8 510.3 L 957.8 510.3 L 957.8 510.3 Q 951.2 510.3 945.95 507.5 L 945.95 507.5 L 945.95 507.5 Q 940.7 504.7 937.5 499.4 L 937.5 499.4 L 937.5 509.8 L 930.7 509.8 L 930.7 435.6 L 937.8 435.6 L 937.8 467.2 L 937.8 467.2 Q 941.1 462.1 946.25 459.45 L 946.25 459.45 L 946.25 459.45 Q 951.4 456.8 957.8 456.8 L 957.8 456.8 Z  M 957.3 504 L 957.3 504 Q 962.8 504 967.3 501.45 L 967.3 501.45 L 967.3 501.45 Q 971.8 498.9 974.35 494.2 L 974.35 494.2 L 974.35 494.2 Q 976.9 489.5 976.9 483.5 L 976.9 483.5 L 976.9 483.5 Q 976.9 477.5 974.35 472.8 L 974.35 472.8 L 974.35 472.8 Q 971.8 468.1 967.3 465.55 L 967.3 465.55 L 967.3 465.55 Q 962.8 463 957.3 463 L 957.3 463 L 957.3 463 Q 951.7 463 947.25 465.55 L 947.25 465.55 L 947.25 465.55 Q 942.8 468.1 940.25 472.8 L 940.25 472.8 L 940.25 472.8 Q 937.7 477.5 937.7 483.5 L 937.7 483.5 L 937.7 483.5 Q 937.7 489.5 940.25 494.2 L 940.25 494.2 L 940.25 494.2 Q 942.8 498.9 947.25 501.45 L 947.25 501.45 L 947.25 501.45 Q 951.7 504 957.3 504 L 957.3 504 Z  M 1038.8 457.2 L 1045.9 457.2 L 1045.9 509.8 L 1039.1 509.8 L 1039.1 500.2 L 1039.1 500.2 Q 1036.3 505 1031.4 507.65 L 1031.4 507.65 L 1031.4 507.65 Q 1026.5 510.3 1020.2 510.3 L 1020.2 510.3 L 1020.2 510.3 Q 1009.9 510.3 1003.95 504.55 L 1003.95 504.55 L 1003.95 504.55 Q 998 498.8 998 487.7 L 998 487.7 L 998 457.2 L 1005.1 457.2 L 1005.1 487 L 1005.1 487 Q 1005.1 495.3 1009.2 499.6 L 1009.2 499.6 L 1009.2 499.6 Q 1013.3 503.9 1020.9 503.9 L 1020.9 503.9 L 1020.9 503.9 Q 1029.2 503.9 1034 498.85 L 1034 498.85 L 1034 498.85 Q 1038.8 493.8 1038.8 484.8 L 1038.8 484.8 L 1038.8 457.2 Z  M 1089.2 501.5 L 1091.7 506.6 L 1091.7 506.6 Q 1089.7 508.4 1086.8 509.35 L 1086.8 509.35 L 1086.8 509.35 Q 1083.9 510.3 1080.7 510.3 L 1080.7 510.3 L 1080.7 510.3 Q 1073.3 510.3 1069.3 506.3 L 1069.3 506.3 L 1069.3 506.3 Q 1065.3 502.3 1065.3 495 L 1065.3 495 L 1065.3 445.7 L 1072.4 445.7 L 1072.4 457.2 L 1088.3 457.2 L 1088.3 463.2 L 1072.4 463.2 L 1072.4 494.6 L 1072.4 494.6 Q 1072.4 499.3 1074.7 501.75 L 1074.7 501.75 L 1074.7 501.75 Q 1077 504.2 1081.4 504.2 L 1081.4 504.2 L 1081.4 504.2 Q 1086.2 504.2 1089.2 501.5 L 1089.2 501.5 Z  M 1125.2 504 L 1125.2 504 Q 1130.1 504 1134.25 502.25 L 1134.25 502.25 L 1134.25 502.25 Q 1138.4 500.5 1141.3 497.1 L 1141.3 497.1 L 1145.3 501.7 L 1145.3 501.7 Q 1141.8 505.9 1136.6 508.1 L 1136.6 508.1 L 1136.6 508.1 Q 1131.4 510.3 1125.1 510.3 L 1125.1 510.3 L 1125.1 510.3 Q 1117 510.3 1110.7 506.85 L 1110.7 506.85 L 1110.7 506.85 Q 1104.4 503.4 1100.9 497.3 L 1100.9 497.3 L 1100.9 497.3 Q 1097.4 491.2 1097.4 483.5 L 1097.4 483.5 L 1097.4 483.5 Q 1097.4 475.8 1100.75 469.7 L 1100.75 469.7 L 1100.75 469.7 Q 1104.1 463.6 1110 460.2 L 1110 460.2 L 1110 460.2 Q 1115.9 456.8 1123.4 456.8 L 1123.4 456.8 L 1123.4 456.8 Q 1130.4 456.8 1136.05 460 L 1136.05 460 L 1136.05 460 Q 1141.7 463.2 1145.05 468.9 L 1145.05 468.9 L 1145.05 468.9 Q 1148.4 474.6 1148.6 481.9 L 1148.6 481.9 L 1105.4 490.3 L 1105.4 490.3 Q 1107.4 496.7 1112.65 500.35 L 1112.65 500.35 L 1112.65 500.35 Q 1117.9 504 1125.2 504 L 1125.2 504 Z  M 1123.4 462.9 L 1123.4 462.9 Q 1117.9 462.9 1113.55 465.45 L 1113.55 465.45 L 1113.55 465.45 Q 1109.2 468 1106.75 472.55 L 1106.75 472.55 L 1106.75 472.55 Q 1104.3 477.1 1104.3 483 L 1104.3 483 L 1104.3 483 Q 1104.3 484.5 1104.4 485.2 L 1104.4 485.2 L 1141.5 478 L 1141.5 478 Q 1140.3 471.4 1135.4 467.15 L 1135.4 467.15 L 1135.4 467.15 Q 1130.5 462.9 1123.4 462.9 L 1123.4 462.9 Z " fill="url(#_lgradient_3)"/><linearGradient id="_lgradient_4" x1="0" y1="0.5" x2="1" y2="0.5" gradientTransform="matrix(65.8,0,0,24.026,1143,483.488)" gradientUnits="userSpaceOnUse"><stop offset="43.913043478260875%" stop-opacity="1" style="stop-color:rgb(110,206,124)"/><stop offset="98.69565217391305%" stop-opacity="1" style="stop-color:rgb(122,130,138)"/></linearGradient><path d=" M 1208.7 506.752 L 1208.797 506.749 L 1208.8 506.842 L 1208.703 506.845 L 1208.7 506.752 L 1208.7 506.752 L 1208.7 506.752 L 1208.7 506.752 L 1208.7 506.752 L 1208.7 506.752 L 1208.7 506.752 L 1208.7 506.752 L 1208.7 506.752 L 1208.7 506.752 L 1208.7 506.752 L 1208.7 506.752 L 1208.7 506.752 L 1208.7 506.752 L 1208.7 506.752 L 1208.7 506.752 L 1208.7 506.752 L 1208.7 506.752 L 1208.7 506.752 L 1208.7 506.752 L 1208.7 506.752 L 1208.7 506.752 L 1208.7 506.752 L 1208.7 506.752 Z  M 1208.4 506.73 L 1208.595 506.724 L 1208.6 506.911 L 1208.405 506.917 L 1208.4 506.73 L 1208.4 506.73 L 1208.4 506.73 L 1208.4 506.73 L 1208.4 506.73 L 1208.4 506.73 L 1208.4 506.73 L 1208.4 506.73 L 1208.4 506.73 L 1208.4 506.73 L 1208.4 506.73 L 1208.4 506.73 L 1208.4 506.73 L 1208.4 506.73 L 1208.4 506.73 L 1208.4 506.73 L 1208.4 506.73 L 1208.4 506.73 L 1208.4 506.73 L 1208.4 506.73 L 1208.4 506.73 L 1208.4 506.73 L 1208.4 506.73 L 1208.4 506.73 Z  M 1208 506.684 L 1208.292 506.676 L 1208.3 506.957 L 1208.008 506.965 L 1208 506.684 L 1208 506.684 L 1208 506.684 L 1208 506.684 L 1208 506.684 L 1208 506.684 L 1208 506.684 L 1208 506.684 L 1208 506.684 L 1208 506.684 L 1208 506.684 L 1208 506.684 L 1208 506.684 L 1208 506.684 L 1208 506.684 L 1208 506.684 L 1208 506.684 L 1208 506.684 L 1208 506.684 L 1208 506.684 L 1208 506.684 L 1208 506.684 L 1208 506.684 Z  M 1206.777 506.743 L 1207.259 506.676 L 1207.323 507.138 L 1206.842 507.205 L 1206.777 506.743 L 1206.777 506.743 L 1206.777 506.743 L 1206.777 506.743 L 1206.777 506.743 L 1206.777 506.743 L 1206.777 506.743 L 1206.777 506.743 L 1206.777 506.743 L 1206.777 506.743 L 1206.777 506.743 L 1206.777 506.743 L 1206.777 506.743 L 1206.777 506.743 L 1206.777 506.743 L 1206.777 506.743 L 1206.777 506.743 L 1206.777 506.743 L 1206.777 506.743 L 1206.777 506.743 L 1206.777 506.743 L 1206.777 506.743 Z  M 1207.484 506.715 L 1207.841 506.669 L 1207.885 507.011 L 1207.528 507.057 L 1207.484 506.715 L 1207.484 506.715 L 1207.484 506.715 L 1207.484 506.715 L 1207.484 506.715 L 1207.484 506.715 L 1207.484 506.715 L 1207.484 506.715 L 1207.484 506.715 L 1207.484 506.715 L 1207.484 506.715 L 1207.484 506.715 L 1207.484 506.715 L 1207.484 506.715 L 1207.484 506.715 L 1207.484 506.715 L 1207.484 506.715 L 1207.484 506.715 L 1207.484 506.715 L 1207.484 506.715 L 1207.484 506.715 Z  M 1205.986 506.776 L 1206.532 506.734 L 1206.572 507.258 L 1206.026 507.3 L 1205.986 506.776 L 1205.986 506.776 L 1205.986 506.776 L 1205.986 506.776 L 1205.986 506.776 L 1205.986 506.776 L 1205.986 506.776 L 1205.986 506.776 L 1205.986 506.776 L 1205.986 506.776 L 1205.986 506.776 L 1205.986 506.776 L 1205.986 506.776 L 1205.986 506.776 L 1205.986 506.776 L 1205.986 506.776 L 1205.986 506.776 L 1205.986 506.776 L 1205.986 506.776 L 1205.986 506.776 Z  M 1205.147 506.741 L 1205.81 506.703 L 1205.847 507.339 L 1205.184 507.377 L 1205.147 506.741 L 1205.147 506.741 L 1205.147 506.741 L 1205.147 506.741 L 1205.147 506.741 L 1205.147 506.741 L 1205.147 506.741 L 1205.147 506.741 L 1205.147 506.741 L 1205.147 506.741 L 1205.147 506.741 L 1205.147 506.741 L 1205.147 506.741 L 1205.147 506.741 L 1205.147 506.741 L 1205.147 506.741 L 1205.147 506.741 L 1205.147 506.741 L 1205.147 506.741 Z  M 1204.205 506.774 L 1204.97 506.749 L 1204.995 507.483 L 1204.23 507.508 L 1204.205 506.774 L 1204.205 506.774 L 1204.205 506.774 L 1204.205 506.774 L 1204.205 506.774 L 1204.205 506.774 L 1204.205 506.774 L 1204.205 506.774 L 1204.205 506.774 L 1204.205 506.774 L 1204.205 506.774 L 1204.205 506.774 L 1204.205 506.774 L 1204.205 506.774 L 1204.205 506.774 L 1204.205 506.774 L 1204.205 506.774 L 1204.205 506.774 Z  M 1203.206 506.6 L 1204 506.72 L 1203.88 507.514 L 1203.086 507.394 L 1203.206 506.6 L 1203.206 506.6 L 1203.206 506.6 L 1203.206 506.6 L 1203.206 506.6 L 1203.206 506.6 L 1203.206 506.6 L 1203.206 506.6 L 1203.206 506.6 L 1203.206 506.6 L 1203.206 506.6 L 1203.206 506.6 L 1203.206 506.6 L 1203.206 506.6 L 1203.206 506.6 L 1203.206 506.6 L 1203.206 506.6 Z  M 1201.959 506.325 L 1202.922 506.459 L 1202.788 507.422 L 1201.825 507.288 L 1201.959 506.325 L 1201.959 506.325 L 1201.959 506.325 L 1201.959 506.325 L 1201.959 506.325 L 1201.959 506.325 L 1201.959 506.325 L 1201.959 506.325 L 1201.959 506.325 L 1201.959 506.325 L 1201.959 506.325 L 1201.959 506.325 L 1201.959 506.325 L 1201.959 506.325 L 1201.959 506.325 L 1201.959 506.325 Z  M 1143 496.146 L 1147.204 492.35 L 1151 496.554 L 1146.796 500.35 L 1143 496.146 L 1143 496.146 L 1143 496.146 L 1143 496.146 L 1143 496.146 L 1143 496.146 L 1143 496.146 L 1143 496.146 L 1143 496.146 L 1143 496.146 L 1143 496.146 L 1143 496.146 L 1143 496.146 L 1143 496.146 L 1143 496.146 Z  M 1149.451 490.559 L 1154.131 487.773 L 1156.927 492.441 L 1152.247 495.227 L 1149.451 490.559 L 1149.451 490.559 L 1149.451 490.559 L 1149.451 490.559 L 1149.451 490.559 L 1149.451 490.559 L 1149.451 490.559 L 1149.451 490.559 L 1149.451 490.559 L 1149.451 490.559 L 1149.451 490.559 L 1149.451 490.559 L 1149.451 490.559 L 1149.451 490.559 Z  M 1156.167 486.492 L 1161.05 484.643 L 1162.898 489.526 L 1158.015 491.375 L 1156.167 486.492 L 1156.167 486.492 L 1156.167 486.492 L 1156.167 486.492 L 1156.167 486.492 L 1156.167 486.492 L 1156.167 486.492 L 1156.167 486.492 L 1156.167 486.492 L 1156.167 486.492 L 1156.167 486.492 L 1156.167 486.492 L 1156.167 486.492 Z  M 1163.538 483.946 L 1168.543 483.488 L 1169 488.492 L 1163.996 488.95 L 1163.538 483.946 L 1163.538 483.946 L 1163.538 483.946 L 1163.538 483.946 L 1163.538 483.946 L 1163.538 483.946 L 1163.538 483.946 L 1163.538 483.946 L 1163.538 483.946 L 1163.538 483.946 L 1163.538 483.946 L 1163.538 483.946 Z  M 1170.513 483.665 L 1175.109 484.177 L 1174.596 488.773 L 1170 488.261 L 1170.513 483.665 L 1170.513 483.665 L 1170.513 483.665 L 1170.513 483.665 L 1170.513 483.665 L 1170.513 483.665 L 1170.513 483.665 L 1170.513 483.665 L 1170.513 483.665 L 1170.513 483.665 L 1170.513 483.665 Z  M 1177.108 484.7 L 1180.941 485.808 L 1179.832 489.641 L 1176 488.532 L 1177.108 484.7 L 1177.108 484.7 L 1177.108 484.7 L 1177.108 484.7 L 1177.108 484.7 L 1177.108 484.7 L 1177.108 484.7 L 1177.108 484.7 L 1177.108 484.7 L 1177.108 484.7 Z  M 1182.674 486.801 L 1185.74 488.534 L 1184.006 491.599 L 1180.941 489.866 L 1182.674 486.801 L 1182.674 486.801 L 1182.674 486.801 L 1182.674 486.801 L 1182.674 486.801 L 1182.674 486.801 L 1182.674 486.801 L 1182.674 486.801 L 1182.674 486.801 Z  M 1186.944 489.924 L 1189.224 491.868 L 1187.28 494.149 L 1185 492.205 L 1186.944 489.924 L 1186.944 489.924 L 1186.944 489.924 L 1186.944 489.924 L 1186.944 489.924 L 1186.944 489.924 L 1186.944 489.924 L 1186.944 489.924 Z  M 1192.368 496.095 L 1193.46 498.464 L 1191.092 499.556 L 1190 497.188 L 1192.368 496.095 L 1192.368 496.095 L 1192.368 496.095 L 1192.368 496.095 L 1192.368 496.095 L 1192.368 496.095 L 1192.368 496.095 Z  M 1190.069 492.834 L 1191.72 494.903 L 1189.651 496.554 L 1188 494.485 L 1190.069 492.834 L 1190.069 492.834 L 1190.069 492.834 L 1190.069 492.834 L 1190.069 492.834 L 1190.069 492.834 Z  M 1193.733 499.452 L 1194.711 501.395 L 1192.768 502.372 L 1191.79 500.43 L 1193.733 499.452 L 1193.733 499.452 L 1193.733 499.452 L 1193.733 499.452 L 1193.733 499.452 Z  M 1195.025 502.094 L 1196.157 503.643 L 1194.607 504.775 L 1193.476 503.226 L 1195.025 502.094 L 1195.025 502.094 L 1195.025 502.094 L 1195.025 502.094 Z  M 1196.582 504.115 L 1197.986 504.952 L 1197.149 506.356 L 1195.745 505.519 L 1196.582 504.115 L 1196.582 504.115 L 1196.582 504.115 Z  M 1198.39 505.195 L 1199.838 505.64 L 1199.393 507.088 L 1197.946 506.643 L 1198.39 505.195 L 1198.39 505.195 Z  M 1200.284 505.874 L 1201.465 506.146 L 1201.193 507.326 L 1200.012 507.054 L 1200.284 505.874 Z " fill-rule="evenodd" fill="url(#_lgradient_4)"/></g></svg>